<?xml version="1.0" encoding="utf-8"?>
<!-- Generator: Adobe Illustrator 25.0.1, SVG Export Plug-In . SVG Version: 6.00 Build 0)  -->
<svg version="1.0" id="katman_1" xmlns="http://www.w3.org/2000/svg" xmlns:xlink="http://www.w3.org/1999/xlink" x="0px" y="0px"
	 viewBox="0 0 800 600" style="enable-background:new 0 0 800 600;" xml:space="preserve">
<style type="text/css">
	.st0{fill:#03363D;}
</style>
<path class="st0" d="M117,302.9l34.8-34.8c4.7-4.7,12.8-4.7,17.6,0l2.4,2.7l5.4-5.4l-2.7-2.7c-8.1-8.1-20.6-8.1-28.4,0l-34.4,34.8
	L117,302.9z"/>
<path class="st0" d="M162.9,279.3l-5.4-5.4l-34.8,34.8c-4.7,4.7-12.8,4.7-17.6,0c-4.7-4.7-4.7-12.8,0-17.6l0,0l29.7-29.7l-5.1-5.4
	l-29.7,29.7c-8.1,7.4-8.1,20.3,0,28.4c8.1,8.1,20.3,8.1,28.4,0.7c0,0,0,0,0.7-0.7L162.9,279.3z M197.3,285.7
	c-8.1-8.1-20.6-8.1-28.4,0l-34.4,34.8l5.4,5.4l34.4-34.4c4.7-4.7,12.8-4.7,17.6,0c2,2,3.7,5.4,3.7,8.4s-1,6.4-3.7,9.1l-29.7,29.7
	l5.4,5.4l29.7-29.7C205.4,305.9,205.4,293.8,197.3,285.7z"/>
<path class="st0" d="M180.5,296.8l-34.8,34.8c-4.7,4.7-12.8,4.7-17.6,0l-2-2.7l-5.4,5.4l2.7,2.7c8.1,8.1,20.6,8.1,28.4,0l34.4-34.4
	L180.5,296.8z"/>
<path class="st0" d="M234.5,309.3c0.7,2,1.7,3.7,3,5.4c2,1,4.4,2,6.4,1.7c2,0,4.4-0.7,6.4-1.7c1.7-1,2-3,2-4.7c0-1,0-1.7-0.7-2.7
	c-0.7-0.7-1-1-1.7-1.7c-0.7-0.7-1.7-1-2.7-1l-2.7-1.4l-3-1c-1.7-0.7-3.7-1-5.4-2c-1.7-0.7-2.7-1.7-3.7-2.7c-1-1-2-2-2.7-3.7
	c-0.7-1.7-1-3-1-4.7s0.7-3.7,1-4.7c0.7-1.7,1.7-2.7,3-3.7c1.7-1,3-2,4.7-2.7c2-0.7,4.4-0.7,6.4-0.7c4.4,0,8.1,1,10.8,3
	c2.7,2,4.4,5.4,4.7,8.4l-7.4,0.7c-0.7-1.7-1-3-2.7-4.4c-1.7-1-3.7-1.7-5.7-1.7c-2,0-3.7,0.7-5.4,1.7c-1,1-2,2.7-2,3.7s0,1.7,0.7,2
	c1,1,1.7,1.7,2,2c0.3,0.3,1.7,1,2.7,1c1,0.7,2,0.7,3,1l3,1c2,0.7,3.7,1,5.4,2c1.7,0.7,2.7,1.7,3.7,2.7c1,1,2,2,2.7,3
	c0.7,1.7,1,3,1,4.7c0,2-0.7,3.7-1,5.4c-0.7,1.7-2,3-3,4.4c-1.7,1-3,2-5.4,2.7c-2,0.7-4.4,1-6.4,1c-3.7,0-8.1-1-11.1-3
	c-3-2-5.4-5.7-5.7-9.5H234.5z M291.5,277.3c3,0,6.4,0.7,9.1,1.7c2.7,1,4.7,2.7,6.8,4.7c2,2,3.7,4.7,4.4,7.4c1,3,1.7,5.7,1.7,9.1
	c0,3-0.7,6.4-1.7,9.5c-1,2.7-2.7,5.4-4.7,7.4l5.7,6.8v2h-7.4l-3.7-5.7c-1.7,0.7-3,1-4.7,1.7c-1.7,0.7-3.7,0.7-5.4,0.7
	c-3,0-6.4-0.7-9.1-1.7c-2.7-1-4.7-2.7-6.8-4.7c-2-2-3-4.4-4.4-6.8c-1-3-1.7-6.4-1.7-9.1c0-3,0.7-6.4,1.7-9.1s2.7-5.4,4.4-6.8
	c2-2,4.4-3.7,6.8-4.7C285.8,277.9,288.5,277.3,291.5,277.3z M291.5,283.7c-2,0-4.4,0.7-5.7,1c-1.4,0.3-3,2-4.4,3c-1,1.7-2,3-2.7,5.4
	c-0.7,2.4-1,4.4-1,6.4c0,2,0.7,4.4,1,6.4c0.7,2,1.7,3.7,2.7,5.4c1,1.7,2.7,2.7,4.4,3c1.7,1,3.7,1,5.7,1c2,0,4.4-0.7,5.7-1
	c1.7-0.7,3-2,4.4-3c1-1.7,2-3,2.7-5.4c0.7-2.4,1-4.4,1-6.4s-0.7-4.4-1-6.4c-0.7-1.7-1.7-3.7-2.7-5.4c-1-1.7-2.7-2.7-4.4-3
	C295.9,284.3,293.5,283.7,291.5,283.7z M342.5,316.7c2.7,0,5.4-1,7.4-2.7c1.7-2,2.7-4.7,2.7-9.1v-26.7h7.4v26.7c0,2.7-0.7,5.4-1,8.1
	c-0.7,2-2,3.7-3.7,5.4s-3,2.7-5.4,3c-4.7,1-10.1,1-14.9,0c-2-0.7-3.7-1.7-5.4-3s-2.7-3-3.7-5.4c-1-2.7-1-5.4-1-8.1v-26.7h7.4v26.7
	c0,3.7,1,6.8,2.7,9.1C336.7,315.4,339.4,316.7,342.5,316.7z M367.5,319.8l15.5-41.5h11.8l15.5,41.5v2h-7.4l-5.1-12.5h-18.6
	l-4.4,12.2h-6.8L367.5,319.8z M381.3,302.9h14.5l-2-6.8c-1-2.7-1.7-4.7-2-6.4c-0.7-1.7-1.4-3.4-1.7-4.4h-2.4l-1,1.7
	c0,0.7-0.7,1.7-1,2c-0.3,0.3-0.7,1.7-1,2.7c-0.7,1-1,2-1.7,3.7L381.3,302.9z M452.5,321.8h-7.4l-13.2-16.9h-4.7v16.9h-7.4v-43.5
	h14.5c2,0,4.4,0,6.4,0.7c2,0.7,3.7,1,5.4,2c3,2,5.4,5.7,5.4,10.1c0,1.7-0.7,3.7-1,5.4c-0.7,1.7-1,2.7-2,3.7c-1,1-2,2-3,2.7
	c-2,0-3,0.7-4.7,1l12.8,15.9v2H452.5z M427.2,297.8h6.4c2.7,0,4.7-0.7,6.8-1.7c1.7-1,2.7-3,2.7-5.4c0-2.4-0.7-4.4-2.7-5.4
	c-2-1-4.4-1.7-6.8-1.7h-6.4V297.8z M462.3,278.3h28.4v6.8h-20.6v11.5h19.2v6.4h-19.2v12.2h21.3v6.8h-28.7v-43.5H462.3z M507.9,309.3
	c0.7,2,1.7,3.7,3,5.4c2,1,4.4,2,6.4,1.7c2,0,4.4-0.7,6.4-1.7c1.7-1,2-3,2-4.7c0-1,0-1.7-0.7-2.7c-0.7-0.7-1-1-1.7-1.7
	c-0.7-0.7-1.7-1-2.7-1l-3-1l-3.7-1c-1.7-0.7-3.7-1-5.4-2c-1.7-0.7-2.7-1.7-3.7-2.7s-2-2-2.7-3.7c-1-3-1-6.4,0-9.5
	c0.7-1.7,1.7-2.7,3-3.7c1.4-1,3-2,4.7-2.7c2-0.7,4.4-0.7,6.8-0.7c4.4,0,8.1,1,10.8,3c2.7,2,4.4,5.4,4.7,8.4l-8.1,0.7
	c0-1.7-1-3-2-4.4c-1.7-1-3.7-1.7-5.7-1.7c-2,0-3.7,0.7-5.4,1.7c-1,1-2,2.7-2,3.7s0,1.7,0.7,2c0.7,0.7,1,1,1.7,1.7
	c0.7,0.7,1.7,1,2.7,1c1,0.7,2,0.7,3,1l3,1c2,0.7,3.7,1,5.4,2c1.7,0.7,2.7,1.7,3.7,2.7c1,1,2,2,2.7,3c0.7,1.7,1,3,1,4.7
	c0,2-0.7,3.7-1,5.4c-0.7,1.7-2,3-3,4.4c-1.7,1-3,2-5.4,2.7c-2,0.7-4.4,1-6.8,1c-3.7,0-8.1-1-11.1-3c-3-2-5.4-5.7-5.4-9.5
	L507.9,309.3z M544.7,278.3h15.9c2.7,0,4.7,0.7,7.4,1c1.7,0.7,3.7,1.7,4.7,2.7c1,1,2,2.7,2.7,4.4c0.7,1.7,1,3.7,1,5.4
	c0,2-0.7,4.4-1,5.7c-0.7,1.7-1.7,3-3,4.4s-3,2-5.4,2.7c-2,0.7-4.7,1-6.8,1h-7.4v16.9h-7.4L544.7,278.3z M552.1,298.5h7.4
	c1,0,2.7,0,3.7-0.7c1,0,2-0.7,2.7-1c1-0.7,1.7-1,2-2c0.7-1,0.7-2,0.7-3s0-2-0.7-3s-1-1.7-2-2c-1-0.7-1.7-1-2.7-1
	c-1,0-2.7-0.7-3.7-0.7h-7.4V298.5z M578.1,319.8l15.5-41.5h11.8l15.5,41.5v2h-7.4l-4.4-12.8h-19.2l-4.4,12.2h-7.4V319.8L578.1,319.8
	z M591.9,302.9h14.5l-2-6.8c-1-2.7-1.7-4.7-2-6.4l-1.7-4.4h-2l-0.7,2c0,0.7-0.7,1.7-1,2c-0.7,1-0.7,1.7-1,2.7c-0.7,1-1,2-1.7,3.7
	L591.9,302.9z M666.8,310.3c-0.7,1.7-1.7,3-2.7,4.7c-1,1.7-2.7,2.7-4.4,3.7c-1.7,1-3.7,2-5.4,2.7c-2,0.7-4.7,1-6.8,1
	c-3,0-5.7-0.7-9.1-1.7c-2.7-1-4.7-2.7-6.8-4.7c-2-2-3-4.4-4.4-6.8c-1-2.7-1.7-5.7-1.7-9.1c0-3,0.7-6.4,1.7-9.1
	c1-2.7,2.7-5.4,4.4-7.4c2-2,4.4-3.7,6.8-4.7c2.7-1,5.7-1.7,9.1-1.7c4.4,0,8.4,1,12.2,3c3,2,5.4,5.4,6.8,9.1l-8.1,1.7
	c-1-2-2.7-3.7-4.4-5.4c-2-1-4.4-2-6.8-2c-2,0-3.7,0.7-5.7,1c-1.7,1-3,2-4.4,3c-1,1.7-2,3-2.7,5.4c-0.7,2-1,4.4-1,6.4s0.7,4.4,1,6.4
	c0.7,1.7,1.7,3.7,2.7,5.4c1,1.7,2.7,2.7,4.4,3c1.7,1,3.7,1,5.7,1c2.7,0,4.7-0.7,6.8-2c1.7-1,3-3,4.4-4.7L666.8,310.3z M677,278.3
	h28.4v6.8h-20.6v11.5H704v6.4h-19.2v12.2H706v6.8h-28.7v-43.5H677z"/>
</svg>
